<svg height="512pt" viewBox="-72 0 512 512.001" width="512pt" xmlns="http://www.w3.org/2000/svg"><path d="m93.332031 90.304688v110.972656h47.296875v-110.972656c0-23.75 19.253906-43.003907 43.003906-43.003907s43.003907 19.253907 43.003907 43.003907v110.972656h47.296875v-110.972656c0-49.871094-40.429688-90.30078175-90.300782-90.30078175-49.875 0-90.300781 40.42968775-90.300781 90.30078175zm0 0" fill="#838383"/><path d="m273.929688 90.308594v110.96875h-21.871094v-110.96875c0-46.171875-34.652344-84.25-79.363282-89.640625 3.582032-.441407 7.234376-.667969 10.9375-.667969 49.875 0 90.296876 40.429688 90.296876 90.308594zm0 0" fill="#5a5a5a"/><path d="m333.757812 511.996094h-300.25c-18.503906 0-33.507812-15.003906-33.507812-33.507813v-264.371093c0-18.507813 15.003906-33.507813 33.507812-33.507813h300.25c18.503907 0 33.507813 15 33.507813 33.507813v264.371093c0 18.503907-15.003906 33.507813-33.507813 33.507813zm0 0" fill="#ffd86e"/><path d="m367.261719 214.113281v264.378907c0 18.5-15 33.507812-33.507813 33.507812h-32.664062c18.507812 0 33.507812-15.007812 33.507812-33.507812v-264.378907c0-18.5-15-33.507812-33.507812-33.507812h32.664062c18.507813 0 33.507813 15.007812 33.507813 33.507812zm0 0" fill="#ffb509"/><path d="m367.265625 271.957031h-367.265625v-57.839843c0-18.507813 15.003906-33.507813 33.507812-33.507813h300.25c18.503907 0 33.507813 15 33.507813 33.507813zm0 0" fill="#80e0dc"/><path d="m367.261719 214.113281v57.839844h-32.664063v-57.839844c0-18.5-15-33.507812-33.507812-33.507812h32.664062c18.507813 0 33.507813 15.007812 33.507813 33.507812zm0 0" fill="#00a8b0"/><path d="m215.597656 359.882812c0-18.855468-16.320312-33.898437-35.605468-31.765624-14.984376 1.65625-26.570313 13.320312-28.144532 28.308593-1.226562 11.652344 3.820313 22.199219 12.175782 28.695313 2.554687 1.988281 3.996093 5.082031 3.996093 8.320312v18.484375c0 8.621094 6.988281 15.609375 15.613281 15.609375 8.621094 0 15.609376-6.988281 15.609376-15.609375v-18.488281c0-3.28125 1.519531-6.371094 4.105468-8.398438 7.457032-5.851562 12.25-14.941406 12.25-25.15625zm0 0" fill="#838383"/><path d="m215.597656 359.882812c0 10.214844-4.792968 19.308594-12.253906 25.152344-2.582031 2.027344-4.09375 5.125-4.09375 8.40625v18.476563c0 4.320312-1.75 8.21875-4.578125 11.050781-2.828125 2.816406-6.726563 4.566406-11.039063 4.566406-4.414062 0-8.394531-1.832031-11.234374-4.773437 2.511718-.742188 4.761718-2.109375 6.5625-3.910157 2.832031-2.828124 4.578124-6.726562 4.578124-11.046874v-18.480469c0-3.28125 1.523438-6.375 4.105469-8.402344 7.460938-5.84375 12.253907-14.9375 12.253907-25.15625 0-11.941406-6.5625-22.375-16.277344-27.859375 17.664062 0 31.976562 14.3125 31.976562 31.976562zm0 0" fill="#5a5a5a"/><g fill="#ffd86e"><path d="m129.847656 226.28125c0 10.378906-8.414062 18.792969-18.792968 18.792969-10.378907 0-18.792969-8.414063-18.792969-18.792969s8.414062-18.792969 18.792969-18.792969c10.378906 0 18.792968 8.414063 18.792968 18.792969zm0 0"/><path d="m202.425781 226.28125c0 10.378906-8.414062 18.792969-18.792969 18.792969-10.378906 0-18.792968-8.414063-18.792968-18.792969s8.414062-18.792969 18.792968-18.792969c10.378907 0 18.792969 8.414063 18.792969 18.792969zm0 0"/><path d="m275.003906 226.28125c0 10.378906-8.414062 18.792969-18.792968 18.792969-10.378907 0-18.792969-8.414063-18.792969-18.792969s8.414062-18.792969 18.792969-18.792969c10.378906 0 18.792968 8.414063 18.792968 18.792969zm0 0"/></g><path d="m129.847656 226.28125c0 10.382812-8.417968 18.796875-18.796875 18.796875-7.304687 0-13.640625-4.175781-16.738281-10.265625 1.636719.472656 3.363281.71875 5.152344.71875 10.371094 0 18.789062-8.414062 18.789062-18.796875 0-3.0625-.742187-5.964844-2.046875-8.527344 7.878907 2.234375 13.640625 9.484375 13.640625 18.074219zm0 0" fill="#ffb509"/><path d="m202.429688 226.28125c0 10.382812-8.417969 18.796875-18.796876 18.796875-7.304687 0-13.640624-4.175781-16.75-10.265625 1.636719.472656 3.363282.71875 5.15625.71875 10.378907 0 18.792969-8.414062 18.792969-18.796875 0-3.0625-.730469-5.957031-2.035156-8.515625 7.871094 2.230469 13.632813 9.472656 13.632813 18.0625zm0 0" fill="#ffb509"/><path d="m275 226.28125c0 10.382812-8.40625 18.796875-18.785156 18.796875-7.316406 0-13.652344-4.175781-16.761719-10.277344 1.636719.484375 3.375.730469 5.167969.730469 10.378906 0 18.792968-8.414062 18.792968-18.796875 0-3.066406-.738281-5.964844-2.046874-8.527344 7.871093 2.234375 13.632812 9.484375 13.632812 18.074219zm0 0" fill="#ffb509"/></svg>